<?xml version="1.0"?>
<!-- Generated by SVGo -->
<svg width="270" height="270"
     xmlns="http://www.w3.org/2000/svg"
     xmlns:xlink="http://www.w3.org/1999/xlink">
<polygon points="57,45 18,67 57,90" style="fill:rgb(0,81,130)" />
<polygon points="213,45 252,67 213,90" style="fill:rgb(0,114,122)" />
<polygon points="18,67 57,90 18,112" style="fill:rgb(0,114,122)" />
<polygon points="252,67 213,90 252,112" style="fill:rgb(0,81,130)" />
<polygon points="57,90 18,112 57,135" style="fill:rgb(0,81,130)" />
<polygon points="213,90 252,112 213,135" style="fill:rgb(0,81,130)" />
<polygon points="18,112 57,135 18,157" style="fill:rgb(0,81,130)" />
<polygon points="252,112 213,135 252,157" style="fill:rgb(0,81,130)" />
<polygon points="57,135 18,157 57,180" style="fill:rgb(0,81,130)" />
<polygon points="213,135 252,157 213,180" style="fill:rgb(0,81,130)" />
<polygon points="18,157 57,180 18,202" style="fill:rgb(0,81,130)" />
<polygon points="252,157 213,180 252,202" style="fill:rgb(0,114,122)" />
<polygon points="57,180 18,202 57,225" style="fill:rgb(0,114,122)" />
<polygon points="213,180 252,202 213,225" style="fill:rgb(0,81,130)" />
<polygon points="18,202 57,225 18,247" style="fill:rgb(255,255,255); fill-opacity:0" />
<polygon points="252,202 213,225 252,247" style="fill:rgb(255,255,255); fill-opacity:0" />
<polygon points="57,0 96,22 57,45" style="fill:rgb(255,255,255); fill-opacity:0" />
<polygon points="213,0 174,22 213,45" style="fill:rgb(255,255,255); fill-opacity:0" />
<polygon points="96,22 57,45 96,67" style="fill:rgb(0,81,130)" />
<polygon points="174,22 213,45 174,67" style="fill:rgb(0,81,130)" />
<polygon points="57,45 96,67 57,90" style="fill:rgb(0,81,130)" />
<polygon points="213,45 174,67 213,90" style="fill:rgb(0,81,130)" />
<polygon points="96,67 57,90 96,112" style="fill:rgb(0,81,130)" />
<polygon points="174,67 213,90 174,112" style="fill:rgb(0,114,122)" />
<polygon points="57,90 96,112 57,135" style="fill:rgb(0,114,122)" />
<polygon points="213,90 174,112 213,135" style="fill:rgb(0,81,130)" />
<polygon points="96,112 57,135 96,157" style="fill:rgb(0,114,122)" />
<polygon points="174,112 213,135 174,157" style="fill:rgb(0,114,122)" />
<polygon points="57,135 96,157 57,180" style="fill:rgb(0,81,130)" />
<polygon points="213,135 174,157 213,180" style="fill:rgb(0,114,122)" />
<polygon points="96,157 57,180 96,202" style="fill:rgb(0,114,122)" />
<polygon points="174,157 213,180 174,202" style="fill:rgb(0,81,130)" />
<polygon points="57,180 96,202 57,225" style="fill:rgb(0,81,130)" />
<polygon points="213,180 174,202 213,225" style="fill:rgb(0,81,130)" />
<polygon points="96,202 57,225 96,247" style="fill:rgb(0,81,130)" />
<polygon points="174,202 213,225 174,247" style="fill:rgb(0,81,130)" />
<polygon points="135,0 96,22 135,45" style="fill:rgb(0,114,122)" />
<polygon points="135,0 174,22 135,45" style="fill:rgb(0,81,130)" />
<polygon points="96,22 135,45 96,67" style="fill:rgb(0,81,130)" />
<polygon points="174,22 135,45 174,67" style="fill:rgb(0,81,130)" />
<polygon points="135,45 96,67 135,90" style="fill:rgb(0,114,122)" />
<polygon points="135,45 174,67 135,90" style="fill:rgb(0,81,130)" />
<polygon points="96,67 135,90 96,112" style="fill:rgb(0,114,122)" />
<polygon points="174,67 135,90 174,112" style="fill:rgb(0,114,122)" />
<polygon points="135,90 96,112 135,135" style="fill:rgb(240,245,244)" />
<polygon points="135,90 174,112 135,135" style="fill:rgb(240,245,244)" />
<polygon points="96,112 135,135 96,157" style="fill:rgb(240,245,244)" />
<polygon points="174,112 135,135 174,157" style="fill:rgb(240,245,244)" />
<polygon points="135,135 96,157 135,180" style="fill:rgb(240,245,244)" />
<polygon points="135,135 174,157 135,180" style="fill:rgb(240,245,244)" />
<polygon points="96,157 135,180 96,202" style="fill:rgb(0,114,122)" />
<polygon points="174,157 135,180 174,202" style="fill:rgb(0,114,122)" />
<polygon points="135,180 96,202 135,225" style="fill:rgb(0,81,130)" />
<polygon points="135,180 174,202 135,225" style="fill:rgb(0,114,122)" />
<polygon points="96,202 135,225 96,247" style="fill:rgb(0,81,130)" />
<polygon points="174,202 135,225 174,247" style="fill:rgb(0,81,130)" />
<polygon points="135,225 96,247 135,270" style="fill:rgb(0,81,130)" />
<polygon points="135,225 174,247 135,270" style="fill:rgb(0,114,122)" />
<polygon points="96,247 135,270 96,292" style="fill:rgb(255,255,255); fill-opacity:0" />
<polygon points="174,247 135,270 174,292" style="fill:rgb(255,255,255); fill-opacity:0" />
</svg>
